<svg xmlns="http://www.w3.org/2000/svg" version="1.1" xmlns:xlink="http://www.w3.org/1999/xlink" xmlns:svgjs="http://svgjs.com/svgjs" width="512" height="512" x="0" y="0" viewBox="0 0 32 32" style="enable-background:new 0 0 512 512" xml:space="preserve" class=""><g><path d="m5 9a1 1 0 0 0 -.989 1.148l2.489 16.594a4.97 4.97 0 0 0 4.944 4.258h9.112a4.97 4.97 0 0 0 4.944-4.258l2.489-16.594a1 1 0 0 0 -.989-1.148zm18.521 17.445a2.98 2.98 0 0 1 -2.965 2.555h-9.112a2.98 2.98 0 0 1 -2.965-2.555l-2.318-15.445h19.678z" fill="#000000" data-original="#000000" class=""></path><path d="m4 7h24a1 1 0 0 0 0-2h-7v-3a1 1 0 0 0 -1-1h-8a1 1 0 0 0 -1 1v3h-7a1 1 0 0 0 0 2zm9-4h6v2h-6z" fill="#000000" data-original="#000000" class=""></path><path d="m16 25a1 1 0 0 0 1-1v-8a1 1 0 0 0 -2 0v8a1 1 0 0 0 1 1z" fill="#000000" data-original="#000000" class=""></path><path d="m19.876 24.992a1.009 1.009 0 0 0 1.116-.868l1-8a1 1 0 0 0 -1.984-.248l-1 8a1 1 0 0 0 .868 1.116z" fill="#000000" data-original="#000000" class=""></path><path d="m12 25a1.009 1.009 0 0 0 .993-1.124l-1-8a1 1 0 1 0 -1.984.248l1 8a1.03 1.03 0 0 0 .991.876z" fill="#000000" data-original="#000000" class=""></path></g></svg>